<svg width="34" height="34" viewBox="0 0 34 34" fill="none" xmlns="http://www.w3.org/2000/svg">
<path d="M29.0013 14.8447L18.6889 4.5322C18.3021 4.1457 17.7777 3.92859 17.2309 3.92859C16.6841 3.92859 16.1597 4.1457 15.773 4.5322L5.46049 14.8447C5.26804 15.0357 5.11549 15.2631 5.0117 15.5136C4.90791 15.7641 4.85496 16.0328 4.85592 16.3039V28.6789C4.85592 28.9524 4.96457 29.2147 5.15797 29.4081C5.35137 29.6015 5.61367 29.7102 5.88717 29.7102H14.1372C14.4107 29.7102 14.673 29.6015 14.8664 29.4081C15.0598 29.2147 15.1684 28.9524 15.1684 28.6789V21.4602H19.2934V28.6789C19.2934 28.9524 19.4021 29.2147 19.5955 29.4081C19.7889 29.6015 20.0512 29.7102 20.3247 29.7102H28.5747C28.8482 29.7102 29.1105 29.6015 29.3039 29.4081C29.4973 29.2147 29.6059 28.9524 29.6059 28.6789V16.3039C29.6069 16.0328 29.5539 15.7641 29.4501 15.5136C29.3464 15.2631 29.1938 15.0357 29.0013 14.8447ZM27.5434 27.6477H21.3559V20.4289C21.3559 20.1554 21.2473 19.8931 21.0539 19.6997C20.8605 19.5063 20.5982 19.3977 20.3247 19.3977H14.1372C13.8637 19.3977 13.6014 19.5063 13.408 19.6997C13.2146 19.8931 13.1059 20.1554 13.1059 20.4289V27.6477H6.91842V16.3039L17.2309 5.99142L27.5434 16.3039V27.6477Z" fill="white"/>
</svg>
