<svg width="126" height="147" viewBox="0 0 126 147" fill="none" xmlns="http://www.w3.org/2000/svg">
<g clip-path="url(#clip0_61_868)">
<rect x="79.6313" y="80.3135" width="18.3753" height="7.34988" fill="white"/>
<path d="M52.4342 129.826H51.2515C47.8544 129.826 45.1005 132.58 45.1005 135.977V140.798C45.1005 144.195 47.8544 146.949 51.2515 146.949H52.4342C55.8312 146.949 58.5851 144.195 58.5851 140.798V135.977C58.5851 132.58 55.8312 129.826 52.4342 129.826Z" fill="white"/>
<path d="M74.1016 129.826H72.9189C69.5218 129.826 66.768 132.58 66.768 135.977V140.798C66.768 144.195 69.5218 146.949 72.9189 146.949H74.1016C77.4987 146.949 80.2526 144.195 80.2526 140.798V135.977C80.2526 132.58 77.4987 129.826 74.1016 129.826Z" fill="white"/>
<path d="M77.5637 130.948C78.2359 131.934 78.6302 133.127 78.6302 134.41V139.232C78.6302 142.629 75.8756 145.383 72.4792 145.383H71.2965C70.0127 145.383 68.8199 144.989 67.8344 144.317C68.9412 145.939 70.8062 147.005 72.9189 147.005H74.1016C77.498 147.005 80.2526 144.251 80.2526 140.855V136.033C80.2526 133.92 79.1861 132.055 77.5637 130.948Z" fill="#D7E6F4"/>
<path d="M55.9418 130.948C56.614 131.934 57.0083 133.127 57.0083 134.41V139.232C57.0083 142.629 54.2537 145.383 50.8573 145.383H49.6746C48.3908 145.383 47.198 144.989 46.2125 144.317C47.3193 145.939 49.1843 147.005 51.297 147.005H52.4797C55.8761 147.005 58.6307 144.251 58.6307 140.855V136.033C58.6307 133.92 57.5642 132.055 55.9418 130.948Z" fill="#D7E6F4"/>
<path d="M125.053 75.124C125.053 70.464 122.557 66.3903 118.827 64.1665C121.03 61.8719 122.39 58.7585 122.39 55.3266C122.39 49.9641 119.074 45.3749 114.384 43.4897C115.122 41.8774 115.536 40.0831 115.536 38.1929C115.536 31.1473 109.825 25.4411 102.784 25.4411C102.582 25.4411 102.375 25.4461 102.173 25.4562C102.446 24.4201 102.592 23.3284 102.592 22.2064C102.592 15.1608 96.8812 9.4546 89.8406 9.4546C88.5821 9.4546 87.3691 9.6416 86.2269 9.98024C84.842 4.42565 79.8282 0.311523 73.8491 0.311523C69.2649 0.311523 65.2468 2.73249 62.9977 6.36142C60.7536 2.73755 56.7355 0.311523 52.1514 0.311523C46.1773 0.311523 41.1584 4.42565 39.7786 9.97013C38.6313 9.6315 37.4183 9.44449 36.1649 9.44449C29.1193 9.44449 23.4131 15.1558 23.4131 22.1963C23.4131 23.3183 23.5597 24.41 23.8326 25.4461C23.6304 25.436 23.4283 25.431 23.221 25.431C16.1755 25.431 10.4692 31.1422 10.4692 38.1828C10.4692 40.073 10.8837 41.8673 11.6216 43.4796C6.9313 45.3648 3.61573 49.949 3.61573 55.3165C3.61573 58.7484 4.97532 61.8617 7.17896 64.1564C3.44895 66.3802 0.952164 70.4539 0.952164 75.1139C0.952164 80.3046 4.05545 84.7674 8.50316 86.7588C6.7544 88.9422 5.70818 91.7069 5.70818 94.7192C5.70818 101.077 10.3631 106.349 16.4484 107.314C16.1502 108.396 15.9885 109.533 15.9885 110.711C15.9885 117.756 21.6997 123.463 28.7402 123.463C30.0695 123.463 31.3482 123.26 32.5511 122.881C32.4804 123.427 32.4399 123.978 32.4399 124.539C32.4399 131.585 38.1512 137.291 45.1917 137.291C48.669 137.291 51.8178 135.896 54.1174 133.642C56.4525 136.31 59.8843 137.993 63.7103 137.993C67.5364 137.993 71.0137 136.28 73.3538 133.581C75.5423 135.34 78.317 136.396 81.3445 136.396C88.3901 136.396 94.0963 130.685 94.0963 123.644C94.0963 123.447 94.0912 123.25 94.0811 123.053C95.097 123.316 96.1635 123.452 97.2602 123.452C104.306 123.452 110.012 117.741 110.012 110.701C110.012 109.523 109.85 108.386 109.552 107.304C115.637 106.339 120.292 101.067 120.292 94.7091C120.292 91.6968 119.246 88.9321 117.497 86.7487C121.945 84.7573 125.048 80.2945 125.048 75.1038L125.053 75.124Z" fill="#6CB0FF"/>
<path d="M20.6836 25.8504C20.6684 25.7998 20.6634 25.7493 20.6482 25.6987C20.4511 25.7392 20.2489 25.7847 20.0569 25.8352C20.0619 25.8352 20.067 25.8352 20.072 25.8352C20.2742 25.8352 20.4814 25.8402 20.6836 25.8504Z" fill="#5D9FED"/>
<path d="M28.7299 123.468C28.7299 123.468 28.735 123.468 28.74 123.468C28.9574 123.468 29.1747 123.453 29.387 123.443C29.392 123.392 29.3971 123.337 29.4021 123.286C29.1798 123.357 28.9523 123.412 28.7299 123.468Z" fill="#5D9FED"/>
<path d="M36.6297 10.3689C36.7055 10.0657 36.7965 9.77252 36.8925 9.47937C36.6499 9.46421 36.4073 9.4541 36.1596 9.4541C35.0679 9.4541 34.0065 9.59057 32.9957 9.84833C33.0007 9.84833 33.0058 9.84833 33.0108 9.84833C34.2693 9.84833 35.4824 10.0353 36.6246 10.374L36.6297 10.3689Z" fill="#5D9FED"/>
<path d="M83.0779 10.3694C84.0685 10.0763 85.1147 9.90948 86.1913 9.86399C84.771 4.37006 79.7876 0.311523 73.8489 0.311523C72.7622 0.311523 71.7109 0.453041 70.7051 0.705752C76.6792 0.705752 81.693 4.81988 83.0779 10.3644V10.3694Z" fill="#5D9FED"/>
<path d="M90.9523 124.055C90.9523 130.009 86.8736 135.007 81.3645 136.412C88.3292 136.402 93.9849 130.807 94.096 123.863C93.0043 123.863 91.948 123.721 90.9422 123.463C90.9523 123.66 90.9574 123.858 90.9574 124.055H90.9523Z" fill="#5D9FED"/>
<path d="M125.053 75.1186C125.053 70.4586 122.556 66.3849 118.826 64.1611C121.03 61.8665 122.39 58.7531 122.39 55.3213C122.39 49.9587 119.074 45.3695 114.384 43.4843C115.122 41.872 115.536 40.0778 115.536 38.1875C115.536 31.1419 109.825 25.4357 102.784 25.4357C102.582 25.4357 102.375 25.4408 102.173 25.4509C102.446 24.4147 102.592 23.323 102.592 22.201C102.592 15.1554 96.8809 9.44922 89.8404 9.44922C88.7639 9.44922 87.7176 9.59074 86.7169 9.84345C93.7473 9.85861 99.4485 15.5598 99.4485 22.5952C99.4485 23.7173 99.3019 24.809 99.029 25.8451C99.2311 25.835 99.4333 25.8299 99.6405 25.8299C106.686 25.8299 112.392 31.5412 112.392 38.5817C112.392 40.472 111.978 42.2662 111.24 43.8785C115.93 45.7637 119.246 50.3479 119.246 55.7155C119.246 59.1473 117.886 62.2607 115.683 64.5553C119.413 66.7792 121.909 70.8529 121.909 75.5129C121.909 80.7035 118.806 85.1664 114.358 87.1578C116.107 89.3412 117.153 92.1058 117.153 95.1182C117.153 101.476 112.498 106.748 106.413 107.713C106.711 108.795 106.873 109.932 106.873 111.11C106.873 117.064 102.794 122.062 97.2853 123.467C104.321 123.457 110.022 117.751 110.022 110.715C110.022 109.538 109.86 108.401 109.562 107.319C115.647 106.354 120.302 101.082 120.302 94.7239C120.302 91.7116 119.256 88.947 117.507 86.7635C121.955 84.7722 125.058 80.3093 125.058 75.1186H125.053Z" fill="#5D9FED"/>
<path d="M86.7169 9.84375C86.7169 9.84375 86.7017 9.84375 86.6916 9.84375C86.5248 9.84375 86.3581 9.85386 86.1913 9.86397C86.2014 9.89935 86.2165 9.93473 86.2216 9.97516C86.3833 9.92967 86.5501 9.88924 86.7169 9.8488V9.84375Z" fill="#5D9FED"/>
<path d="M25.0707 115.512C25.1768 115.527 25.288 115.538 25.3941 115.553C25.3941 115.522 25.3941 115.497 25.3941 115.467C25.288 115.487 25.1819 115.497 25.0707 115.512Z" fill="#BBDDFF"/>
<path d="M29.5841 45.4614L32.2931 43.3235C33.1068 44.208 35.4874 46.5733 39.2831 47.1748C45.7778 48.2059 50.367 43.1264 50.7006 42.7524C52.9396 47.4831 57.7411 50.5005 62.9722 50.46C68.1831 50.4196 72.924 47.3517 75.1023 42.6108C76.0171 43.3993 79.2771 46.0123 84.2353 46.1791C89.244 46.3459 92.7011 43.9047 93.6513 43.182C94.5054 44.5618 95.3647 45.9416 96.2188 47.3214C96.9264 50.7987 97.9777 58.6226 93.9343 66.1584C86.2772 80.4315 67.2632 80.7803 63.2552 80.8561C60.6169 80.9066 37.5849 81.3261 30.1501 65.3043C26.3898 57.1973 28.4822 48.9084 29.579 45.4715L29.5841 45.4614Z" fill="white"/>
<path d="M96.2188 47.321C95.3647 45.9412 94.5054 44.5614 93.6513 43.1816C93.5148 43.2827 93.3278 43.4242 93.0953 43.5809C93.3683 44.0257 93.6462 44.4654 93.9192 44.9102C94.6267 48.3875 95.678 56.2114 91.6346 63.7472C83.9775 78.0203 64.9636 78.3691 60.9556 78.4449C58.7823 78.4853 42.8008 78.7785 33.0664 69.9437C42.3308 81.2399 60.9 80.8962 63.2552 80.8558C67.2632 80.7799 86.2772 80.4312 93.9343 66.1581C97.9777 58.6223 96.9264 50.7983 96.2188 47.321Z" fill="#D7E6F4"/>
<path d="M80.8692 21.4442C81.0916 21.4795 82.6938 21.7828 83.5985 23.3344C84.483 24.8558 83.9876 26.367 83.9118 26.5843C84.8115 26.4428 86.3277 26.3316 88.1068 26.7966C90.4065 27.398 91.9177 28.6464 92.6152 29.3136C92.8376 26.1092 91.2404 23.0716 88.5263 21.5503C84.8772 19.5033 81.1725 21.2925 80.8692 21.4442Z" fill="white"/>
<path d="M45.4392 21.3426C45.2168 21.378 43.6146 21.6812 42.7099 23.2329C41.8254 24.7542 42.3207 26.2654 42.3965 26.4827C41.4969 26.3412 39.9806 26.23 38.2015 26.695C35.9019 27.2965 34.3907 28.5449 33.6932 29.212C33.4708 26.0076 35.0679 22.9701 37.782 21.4487C41.4312 19.4018 45.1359 21.191 45.4392 21.3426Z" fill="white"/>
<path d="M87.6418 84.8081C87.9653 85.0962 88.5162 85.5106 89.2996 85.7634C90.6794 86.2081 91.8672 85.8493 92.2968 85.6977C91.9632 86.4305 91.478 87.7598 91.5336 89.458C91.6195 92.2024 93.06 94.0775 93.5755 94.684C91.3921 98.6364 87.3891 100.319 84.4577 99.2126C82.4006 98.4343 81.1623 96.3823 80.8237 94.6234C80.1414 91.0602 82.8049 86.8551 87.6469 84.8081H87.6418Z" fill="white"/>
<path d="M39.182 84.4346C43.8875 85.8447 47.0009 89.4938 47.0565 93.3249C47.0868 95.4376 46.2023 98.4448 43.8572 99.5618C40.9459 100.952 36.291 99.1878 33.7993 94.4925C34.3704 93.5726 35.0628 92.2383 35.5127 90.5148C36.0939 88.3162 36.0333 86.4209 35.9018 85.2129C35.9322 85.2483 36.7055 86.0216 37.7719 85.7588C38.8282 85.501 39.1618 84.4851 39.177 84.4346H39.182Z" fill="white"/>
<path d="M80.4547 56.3932L69.4719 55.1953L69.381 56.0394L68.8351 55.9838L68.6127 58.0257L79.5955 59.2235L79.6916 58.3744L80.2324 58.4351L80.4547 56.3932Z" fill="#212121"/>
<path d="M56.1238 54.7856L45.237 56.6709L45.3835 57.5099L44.8427 57.6059L45.1915 59.6326L56.0783 57.7424L55.9368 56.9034L56.4725 56.8073L56.1238 54.7856Z" fill="#212121"/>
<path d="M62.487 62.5451C63.5142 62.5451 64.3469 62.0767 64.3469 61.4989C64.3469 60.921 63.5142 60.4526 62.487 60.4526C61.4598 60.4526 60.627 60.921 60.627 61.4989C60.627 62.0767 61.4598 62.5451 62.487 62.5451Z" fill="#212121"/>
<path d="M59.7476 65.6935C58.3324 65.7239 56.2248 65.5925 53.9352 64.6776C50.9179 63.4697 50.2861 62.0596 47.7843 61.5693C45.5453 61.1296 42.4369 61.7513 41.5676 63.596C40.5517 65.7542 42.8968 69.2163 45.4189 70.5557C49.1843 72.5471 54.9714 70.6719 59.7425 65.6885L59.7476 65.6935Z" fill="#C5F8FF"/>
<path d="M85.9841 82.7607C86.1762 83.2712 86.5451 84.0243 87.2729 84.6662C89.239 86.3897 91.9683 85.6669 92.2463 85.586C91.8672 86.3897 91.2809 87.9413 91.4477 89.8821C91.7863 93.789 94.8896 95.9927 95.3799 96.3313" stroke="#5D9FED" stroke-width="1.51626" stroke-linecap="round" stroke-linejoin="round"/>
<path d="M39.6672 82.9985C39.6116 83.1906 39.182 84.5502 37.7466 85.1769C36.3517 85.7885 35.0982 85.2325 34.9112 85.1466C35.1589 86.3748 35.5228 89.0889 34.4058 92.182C33.6224 94.3503 32.4245 95.8413 31.6209 96.6904" stroke="#5D9FED" stroke-width="1.51626" stroke-linecap="round" stroke-linejoin="round"/>
<path d="M22.8013 47.3818C24.0194 47.1999 25.5357 46.8562 27.1934 46.1941C29.6397 45.2136 31.444 43.9096 32.6267 42.8987C33.2181 43.576 35.9676 46.563 40.5366 46.9471C46.2984 47.4374 50.0435 43.3688 50.4681 42.8987C53.1317 47.5132 58.1556 50.2324 63.3917 49.8836C71.064 49.3782 74.6576 42.5854 74.8193 42.2568C75.8605 43.1161 79.0446 45.5168 83.8158 45.7998C88.8397 46.098 92.4231 43.854 93.5098 43.111C94.1719 43.95 95.3798 45.2641 97.2853 46.2749C98.6853 47.0179 99.9792 47.3464 100.899 47.5031" stroke="#5D9FED" stroke-width="1.51626" stroke-linecap="round" stroke-linejoin="round"/>
<path d="M77.9125 21.1298C78.3117 21.1096 80.2627 21.0641 81.9356 22.545C83.7248 24.132 83.8259 26.2598 83.836 26.6187C84.4779 26.5428 88.3848 26.1486 91.3264 28.9284C92.6758 30.2021 93.2975 31.6527 93.5906 32.5321" stroke="#5D9FED" stroke-width="1.51626" stroke-linecap="round" stroke-linejoin="round"/>
<path d="M32.4549 31.7947C33.0058 30.9102 33.9863 29.586 35.6037 28.469C38.3885 26.5433 41.2694 26.4473 42.3915 26.4726C42.3915 26.048 42.4521 24.4408 43.6803 23.0104C44.9691 21.5093 46.6471 21.2465 47.0515 21.1909" stroke="#5D9FED" stroke-width="1.51626" stroke-linecap="round" stroke-linejoin="round"/>
</g>
<defs>
<clipPath id="clip0_61_868">
<rect width="124.106" height="146.688" fill="white" transform="translate(0.946899 0.311523)"/>
</clipPath>
</defs>
</svg>
