<svg width="43" height="36" viewBox="0 0 43 36" fill="none" xmlns="http://www.w3.org/2000/svg">
<g clip-path="url(#clip0_174_1818)">
<path d="M40.9178 25.8781H2.73311C1.67972 25.8781 0.825439 25.0409 0.825439 24.0088V7.56693C0.825439 6.88587 1.20253 6.25796 1.81209 5.93017C5.47283 3.96228 12.6964 0.798383 22.2537 0.894728C31.3482 0.986644 38.2259 3.98775 41.8332 5.92684C42.445 6.25575 42.8265 6.88365 42.8265 7.56693V24.0088C42.8265 25.0409 41.9723 25.8781 40.9189 25.8781H40.9178Z" fill="#F4FAFF"/>
<path d="M16.7599 9.50293H8.00239C6.22758 9.50293 4.78882 10.9353 4.78882 12.7023V14.5993C4.78882 16.3662 6.22758 17.7986 8.00239 17.7986H16.7599C18.5347 17.7986 19.9735 16.3662 19.9735 14.5993V12.7023C19.9735 10.9353 18.5347 9.50293 16.7599 9.50293Z" fill="#2F82E3"/>
<path d="M35.6488 9.50293H26.8913C25.1165 9.50293 23.6777 10.9353 23.6777 12.7023V14.5993C23.6777 16.3662 25.1165 17.7986 26.8913 17.7986H35.6488C37.4236 17.7986 38.8624 16.3662 38.8624 14.5993V12.7023C38.8624 10.9353 37.4236 9.50293 35.6488 9.50293Z" fill="#2F82E3"/>
<path d="M40.5896 15.125H3.06126C1.82655 15.125 0.825439 16.1339 0.825439 17.3786V28.7374H0.85436V33.6388C0.85436 34.8836 1.85547 35.8924 3.09018 35.8924H6.029C7.06904 35.8924 7.97116 35.1704 8.20697 34.1494L9.05236 30.4816C9.28818 29.4605 10.1903 28.7385 11.2303 28.7385H32.445C33.4851 28.7385 34.3872 29.4617 34.623 30.4816L35.4684 34.1494C35.7042 35.1704 36.6063 35.8924 37.6464 35.8924H40.5852C41.8199 35.8924 42.821 34.8836 42.821 33.6388V28.7374H42.8288V17.3786C42.8288 16.1339 41.8277 15.125 40.593 15.125H40.5896Z" fill="#5FA9FF"/>
</g>
<defs>
<clipPath id="clip0_174_1818">
<rect width="42" height="35" fill="white" transform="translate(0.825439 0.892578)"/>
</clipPath>
</defs>
</svg>
