<svg width="67" height="80" viewBox="0 0 67 80" fill="none" xmlns="http://www.w3.org/2000/svg">
<g clip-path="url(#clip0_362_2864)">
<rect x="42.4873" y="43.5693" width="9.90023" height="3.95996" fill="white"/>
<path d="M27.834 70.2451H27.1968C25.3665 70.2451 23.8828 71.7289 23.8828 73.5591V76.157C23.8828 77.9873 25.3665 79.471 27.1968 79.471H27.834C29.6643 79.471 31.1481 77.9873 31.1481 76.157V73.5591C31.1481 71.7289 29.6643 70.2451 27.834 70.2451Z" fill="white"/>
<path d="M39.5079 70.2451H38.8707C37.0404 70.2451 35.5566 71.7289 35.5566 73.5591V76.157C35.5566 77.9873 37.0404 79.471 38.8707 79.471H39.5079C41.3382 79.471 42.8219 77.9873 42.8219 76.157V73.5591C42.8219 71.7289 41.3382 70.2451 39.5079 70.2451Z" fill="white"/>
<path d="M41.3733 70.8501C41.7355 71.3811 41.9479 72.0238 41.9479 72.7154V75.3133C41.9479 77.1432 40.4638 78.6273 38.6339 78.6273H37.9967C37.305 78.6273 36.6624 78.4149 36.1313 78.0527C36.7277 78.9268 37.7325 79.5014 38.8708 79.5014H39.508C41.3379 79.5014 42.822 78.0173 42.822 76.1874V73.5895C42.822 72.4513 42.2474 71.4465 41.3733 70.8501Z" fill="#D7E6F4"/>
<path d="M29.7239 70.8501C30.0861 71.3811 30.2985 72.0238 30.2985 72.7154V75.3133C30.2985 77.1432 28.8144 78.6273 26.9845 78.6273H26.3473C25.6556 78.6273 25.0129 78.4149 24.4819 78.0527C25.0783 78.9268 26.0831 79.5014 27.2214 79.5014H27.8586C29.6885 79.5014 31.1726 78.0173 31.1726 76.1874V73.5895C31.1726 72.4513 30.598 71.4465 29.7239 70.8501Z" fill="#D7E6F4"/>
<path d="M66.9598 40.7732C66.9598 38.2625 65.6146 36.0677 63.605 34.8695C64.7922 33.6332 65.5247 31.9558 65.5247 30.1068C65.5247 27.2176 63.7384 24.745 61.2113 23.7293C61.6089 22.8606 61.8322 21.8939 61.8322 20.8755C61.8322 17.0795 58.7551 14.0051 54.9618 14.0051C54.8529 14.0051 54.7412 14.0078 54.6323 14.0133C54.7794 13.455 54.8583 12.8668 54.8583 12.2623C54.8583 8.4663 51.7812 5.39192 47.9879 5.39192C47.3099 5.39192 46.6563 5.49267 46.0409 5.67512C45.2948 2.68243 42.5935 0.46582 39.372 0.46582C36.9022 0.46582 34.7373 1.77019 33.5255 3.72538C32.3165 1.77291 30.1516 0.46582 27.6817 0.46582C24.463 0.46582 21.759 2.68243 21.0156 5.66968C20.3974 5.48723 19.7439 5.38647 19.0686 5.38647C15.2725 5.38647 12.1982 8.46358 12.1982 12.2569C12.1982 12.8614 12.2771 13.4496 12.4242 14.0078C12.3153 14.0024 12.2063 13.9997 12.0947 13.9997C8.29867 13.9997 5.22429 17.0768 5.22429 20.8701C5.22429 21.8885 5.44758 22.8552 5.84516 23.7239C3.31811 24.7396 1.53176 27.2094 1.53176 30.1014C1.53176 31.9504 2.26427 33.6278 3.45155 34.8641C1.44189 36.0623 0.0966797 38.2571 0.0966797 40.7678C0.0966797 43.5644 1.76867 45.9689 4.165 47.0418C3.22281 48.2182 2.65912 49.7077 2.65912 51.3307C2.65912 54.7564 5.1671 57.5966 8.44572 58.1167C8.28506 58.6994 8.19792 59.3121 8.19792 59.9466C8.19792 63.7426 11.275 66.817 15.0683 66.817C15.7845 66.817 16.4734 66.7081 17.1215 66.5039C17.0834 66.7979 17.0616 67.0948 17.0616 67.397C17.0616 71.193 20.1387 74.2674 23.932 74.2674C25.8055 74.2674 27.502 73.5158 28.741 72.3013C29.9991 73.7391 31.8481 74.6459 33.9095 74.6459C35.9709 74.6459 37.8444 73.7228 39.1052 72.2687C40.2843 73.2163 41.7793 73.7854 43.4104 73.7854C47.2064 73.7854 50.2808 70.7083 50.2808 66.915C50.2808 66.8088 50.2781 66.7026 50.2726 66.5964C50.82 66.738 51.3945 66.8116 51.9855 66.8116C55.7815 66.8116 58.8559 63.7345 58.8559 59.9412C58.8559 59.3067 58.7687 58.694 58.6081 58.1112C61.8867 57.5911 64.3947 54.7509 64.3947 51.3253C64.3947 49.7023 63.831 48.2128 62.8888 47.0364C65.2851 45.9635 66.9571 43.559 66.9571 40.7623L66.9598 40.7732Z" fill="#6CB0FF"/>
<path d="M10.7276 14.2257C10.7194 14.1985 10.7167 14.1713 10.7085 14.144C10.6023 14.1658 10.4934 14.1903 10.3899 14.2176C10.3926 14.2176 10.3953 14.2176 10.3981 14.2176C10.507 14.2176 10.6186 14.2203 10.7276 14.2257Z" fill="#5D9FED"/>
<path d="M15.0627 66.8202C15.0627 66.8202 15.0655 66.8202 15.0682 66.8202C15.1853 66.8202 15.3024 66.812 15.4167 66.8066C15.4195 66.7794 15.4222 66.7494 15.4249 66.7222C15.3051 66.7603 15.1826 66.7902 15.0627 66.8202Z" fill="#5D9FED"/>
<path d="M19.319 5.88448C19.3598 5.7211 19.4089 5.56316 19.4606 5.40522C19.3299 5.39705 19.1992 5.3916 19.0657 5.3916C18.4776 5.3916 17.9057 5.46513 17.3611 5.604C17.3638 5.604 17.3665 5.604 17.3693 5.604C18.0473 5.604 18.7009 5.70476 19.3163 5.88721L19.319 5.88448Z" fill="#5D9FED"/>
<path d="M44.3441 5.8848C44.8779 5.72686 45.4416 5.637 46.0216 5.61249C45.2564 2.65247 42.5714 0.46582 39.3718 0.46582C38.7863 0.46582 38.2199 0.542067 37.678 0.678223C40.8967 0.678223 43.598 2.89483 44.3441 5.88208V5.8848Z" fill="#5D9FED"/>
<path d="M48.5866 67.136C48.5866 70.3438 46.3891 73.037 43.4209 73.794C47.1733 73.7885 50.2205 70.7741 50.2804 67.0325C49.6922 67.0325 49.1231 66.9563 48.5812 66.8174C48.5866 66.9236 48.5894 67.0298 48.5894 67.136H48.5866Z" fill="#5D9FED"/>
<path d="M66.9594 40.77C66.9594 38.2593 65.6142 36.0645 63.6046 34.8663C64.7919 33.63 65.5244 31.9526 65.5244 30.1036C65.5244 27.2144 63.738 24.7418 61.211 23.7261C61.6085 22.8574 61.8318 21.8907 61.8318 20.8723C61.8318 17.0762 58.7547 14.0019 54.9614 14.0019C54.8525 14.0019 54.7409 14.0046 54.6319 14.01C54.779 13.4518 54.858 12.8636 54.858 12.2591C54.858 8.46306 51.7809 5.38867 47.9876 5.38867C47.4075 5.38867 46.8439 5.46492 46.3047 5.60107C50.0925 5.60924 53.1642 8.68091 53.1642 12.4715C53.1642 13.076 53.0852 13.6642 52.9382 14.2224C53.0471 14.217 53.156 14.2143 53.2677 14.2143C57.0637 14.2143 60.1381 17.2914 60.1381 21.0847C60.1381 22.1031 59.9148 23.0698 59.5172 23.9385C62.0442 24.9542 63.8306 27.424 63.8306 30.316C63.8306 32.165 63.0981 33.8424 61.9108 35.0787C63.9205 36.2769 65.2657 38.4717 65.2657 40.9824C65.2657 43.779 63.5937 46.1835 61.1974 47.2564C62.1395 48.4328 62.7032 49.9223 62.7032 51.5453C62.7032 54.971 60.1953 57.8112 56.9166 58.3313C57.0773 58.914 57.1644 59.5267 57.1644 60.1612C57.1644 63.369 54.9669 66.0622 51.9987 66.8192C55.7893 66.8138 58.8609 63.7394 58.8609 59.9488C58.8609 59.3143 58.7738 58.7016 58.6131 58.1189C61.8917 57.5988 64.3997 54.7586 64.3997 51.3329C64.3997 49.7099 63.836 48.2204 62.8938 47.044C65.2902 45.9711 66.9622 43.5666 66.9622 40.77H66.9594Z" fill="#5D9FED"/>
<path d="M46.3049 5.60156C46.3049 5.60156 46.2968 5.60156 46.2913 5.60156C46.2015 5.60156 46.1116 5.60701 46.0217 5.61245C46.0272 5.63152 46.0353 5.65058 46.0381 5.67236C46.1252 5.64786 46.2151 5.62607 46.3049 5.60429V5.60156Z" fill="#5D9FED"/>
<path d="M13.0911 62.5338C13.1482 62.542 13.2082 62.5474 13.2653 62.5556C13.2653 62.5392 13.2653 62.5256 13.2653 62.5093C13.2082 62.5202 13.151 62.5256 13.0911 62.5338Z" fill="#BBDDFF"/>
<path d="M15.5229 24.7917L16.9825 23.6398C17.4209 24.1164 18.7035 25.3908 20.7486 25.7148C24.2477 26.2703 26.7203 23.5336 26.9 23.3321C28.1064 25.8809 30.6933 27.5066 33.5118 27.4848C36.3193 27.4631 38.8735 25.8101 40.0472 23.2559C40.5401 23.6807 42.2965 25.0885 44.9679 25.1784C47.6665 25.2682 49.5291 23.953 50.041 23.5636C50.5012 24.307 50.9641 25.0504 51.4243 25.7938C51.8056 27.6673 52.372 31.8827 50.1935 35.9428C46.068 43.6329 35.8237 43.8208 33.6642 43.8616C32.2428 43.8888 19.8336 44.1148 15.8279 35.4826C13.8019 31.1147 14.9293 26.6488 15.5202 24.7971L15.5229 24.7917Z" fill="white"/>
<path d="M51.4244 25.7932C50.9642 25.0498 50.5012 24.3064 50.041 23.563C49.9675 23.6175 49.8668 23.6937 49.7415 23.7781C49.8885 24.0177 50.0383 24.2547 50.1854 24.4943C50.5666 26.3678 51.133 30.5832 48.9545 34.6433C44.829 42.3334 34.5847 42.5213 32.4253 42.5621C31.2543 42.5839 22.6439 42.7418 17.3992 37.9818C22.3906 44.068 32.3953 43.8828 33.6643 43.861C35.8237 43.8202 46.068 43.6323 50.1935 35.9422C52.372 31.8821 51.8056 27.6667 51.4244 25.7932Z" fill="#D7E6F4"/>
<path d="M43.1543 11.8517C43.2741 11.8708 44.1373 12.0342 44.6248 12.8701C45.1013 13.6898 44.8345 14.504 44.7936 14.6211C45.2783 14.5449 46.0952 14.4849 47.0538 14.7355C48.2928 15.0595 49.107 15.7321 49.4828 16.0916C49.6026 14.3651 48.7421 12.7285 47.2798 11.9089C45.3137 10.806 43.3177 11.77 43.1543 11.8517Z" fill="white"/>
<path d="M24.0652 11.797C23.9453 11.8161 23.0821 11.9795 22.5947 12.8155C22.1181 13.6351 22.385 14.4493 22.4258 14.5664C21.9411 14.4902 21.1242 14.4303 20.1657 14.6808C18.9267 15.0048 18.1124 15.6774 17.7367 16.0369C17.6168 14.3104 18.4773 12.6739 19.9396 11.8542C21.9057 10.7513 23.9018 11.7153 24.0652 11.797Z" fill="white"/>
<path d="M42.9308 30.6815L37.0135 30.0361L36.9644 30.4909L36.6704 30.4609L36.5505 31.5611L42.4678 32.2064L42.5196 31.749L42.811 31.7816L42.9308 30.6815Z" fill="#212121"/>
<path d="M29.8219 29.8154L23.9563 30.8311L24.0353 31.2832L23.7439 31.3349L23.9318 32.4269L29.7974 31.4084L29.7211 30.9564L30.0098 30.9047L29.8219 29.8154Z" fill="#212121"/>
<path d="M33.2504 33.996C33.8038 33.996 34.2525 33.7436 34.2525 33.4323C34.2525 33.121 33.8038 32.8687 33.2504 32.8687C32.6969 32.8687 32.2483 33.121 32.2483 33.4323C32.2483 33.7436 32.6969 33.996 33.2504 33.996Z" fill="#212121"/>
<path d="M11.8687 25.8262C12.5249 25.7281 13.3419 25.543 14.235 25.1862C15.553 24.658 16.5252 23.9554 17.1624 23.4108C17.481 23.7757 18.9623 25.385 21.424 25.592C24.5284 25.8561 26.5462 23.664 26.7749 23.4108C28.21 25.897 30.9168 27.362 33.7379 27.1741C37.8716 26.9018 39.8077 23.2419 39.8949 23.0649C40.4558 23.5279 42.1714 24.8213 44.742 24.9738C47.4488 25.1345 49.3794 23.9254 49.9649 23.5251C50.3216 23.9772 50.9725 24.6852 51.9991 25.2298C52.7534 25.6301 53.4505 25.8071 53.9461 25.8915" stroke="#5D9FED" stroke-width="0.816932" stroke-linecap="round" stroke-linejoin="round"/>
<path d="M41.5613 11.6823C41.7764 11.6714 42.8275 11.6469 43.7289 12.4448C44.6929 13.2998 44.7473 14.4463 44.7528 14.6396C45.0986 14.5987 47.2036 14.3863 48.7884 15.8841C49.5155 16.5703 49.8504 17.3518 50.0084 17.8256" stroke="#5D9FED" stroke-width="0.816932" stroke-linecap="round" stroke-linejoin="round"/>
<path d="M17.0696 17.4284C17.3664 16.9519 17.8947 16.2384 18.7661 15.6366C20.2665 14.5991 21.8187 14.5474 22.4232 14.561C22.4232 14.3322 22.4559 13.4663 23.1176 12.6956C23.812 11.8869 24.7161 11.7453 24.9339 11.7153" stroke="#5D9FED" stroke-width="0.816932" stroke-linecap="round" stroke-linejoin="round"/>
</g>
<defs>
<clipPath id="clip0_362_2864">
<rect width="66.8659" height="79.0327" fill="white" transform="translate(0.09375 0.46582)"/>
</clipPath>
</defs>
</svg>
