<svg width="49" height="42" viewBox="0 0 49 42" fill="none" xmlns="http://www.w3.org/2000/svg">
<g clip-path="url(#clip0_174_1777)">
<path d="M11.3182 42.0001L0.825439 36.0544V5.72314L11.3182 11.6681V42.0001Z" fill="white"/>
<path d="M11.3181 42.0001L21.8109 36.0544V5.72314L11.3181 11.6681V42.0001Z" fill="#DDEDE1"/>
<path d="M32.3038 42.0001L21.811 36.0544V5.72314L32.3038 11.6681V42.0001Z" fill="white"/>
<path d="M32.3037 42.0001L42.7965 36.0544V5.72314L32.3037 11.6681V42.0001Z" fill="#DDEDE1"/>
<path d="M41.8247 17.1171L37.4524 8.76565C35.8033 5.61465 37.2375 1.70429 40.5837 0.416427C41.3459 0.123224 42.1704 -0.0259752 43.0198 0.00371621C43.576 0.0230156 44.1172 0.117286 44.6328 0.276877C48.212 1.38659 49.8619 5.47065 48.1384 8.76194C46.6802 11.547 45.2221 14.3321 43.7646 17.1171C43.3573 17.8943 42.2321 17.8943 41.8247 17.1171Z" fill="#00BF28"/>
<path d="M42.7965 8.54973C44.3773 8.54973 45.6588 7.28421 45.6588 5.72311C45.6588 4.16201 44.3773 2.89648 42.7965 2.89648C41.2158 2.89648 39.9343 4.16201 39.9343 5.72311C39.9343 7.28421 41.2158 8.54973 42.7965 8.54973Z" fill="white"/>
</g>
<defs>
<clipPath id="clip0_174_1777">
<rect width="48" height="42" fill="white" transform="translate(0.825439)"/>
</clipPath>
</defs>
</svg>
