<svg width="34" height="34" viewBox="0 0 34 34" fill="none" xmlns="http://www.w3.org/2000/svg">
<path d="M10.0122 19.3977H4.85593C4.58242 19.3977 4.32012 19.2891 4.12672 19.0957C3.93333 18.9023 3.82468 18.64 3.82468 18.3665C3.82468 18.0929 3.93333 17.8306 4.12672 17.6372C4.32012 17.4439 4.58242 17.3352 4.85593 17.3352H9.46046L11.2162 14.7004C11.3103 14.5589 11.4379 14.4429 11.5877 14.3627C11.7375 14.2824 11.9048 14.2404 12.0747 14.2404C12.2446 14.2404 12.4119 14.2824 12.5617 14.3627C12.7114 14.4429 12.8391 14.5589 12.9332 14.7004L16.1997 19.5988L17.4037 17.7941C17.4979 17.6528 17.6256 17.537 17.7754 17.457C17.9251 17.3769 18.0924 17.3351 18.2622 17.3352H21.3559C21.6294 17.3352 21.8917 17.4439 22.0851 17.6372C22.2785 17.8306 22.3872 18.0929 22.3872 18.3665C22.3872 18.64 22.2785 18.9023 22.0851 19.0957C21.8917 19.2891 21.6294 19.3977 21.3559 19.3977H18.8139L17.0582 22.0325C16.9641 22.174 16.8364 22.29 16.6867 22.3702C16.5369 22.4505 16.3696 22.4925 16.1997 22.4925C16.0298 22.4925 15.8625 22.4505 15.7127 22.3702C15.5629 22.29 15.4353 22.174 15.3412 22.0325L12.0747 17.1315L10.8707 18.9362C10.7767 19.078 10.6492 19.1943 10.4994 19.2748C10.3496 19.3553 10.1822 19.3975 10.0122 19.3977ZM23.6762 5.99146C21.0143 5.99146 18.6837 7.13614 17.2309 9.07102C15.7782 7.13614 13.4475 5.99146 10.7856 5.99146C8.66669 5.99384 6.63523 6.83664 5.13692 8.33495C3.63861 9.83326 2.79581 11.8647 2.79343 13.9836C2.79343 14.0803 2.79343 14.177 2.79343 14.2737C2.80197 14.5472 2.91882 14.8061 3.11826 14.9934C3.3177 15.1808 3.5834 15.2813 3.8569 15.2727C4.13041 15.2642 4.38932 15.1473 4.57667 14.9479C4.76402 14.7484 4.86447 14.4827 4.85593 14.2092C4.85593 14.1345 4.85593 14.0584 4.85593 13.9836C4.85797 12.4116 5.48336 10.9046 6.59495 9.79298C7.70654 8.68139 9.21359 8.056 10.7856 8.05395C13.2928 8.05395 15.3979 9.38942 16.277 11.5344C16.3547 11.7236 16.4869 11.8853 16.6567 11.9992C16.8266 12.113 17.0265 12.1738 17.2309 12.1738C17.4354 12.1738 17.6353 12.113 17.8051 11.9992C17.975 11.8853 18.1071 11.7236 18.1848 11.5344C19.064 9.38556 21.169 8.05395 23.6762 8.05395C25.2483 8.056 26.7553 8.68139 27.8669 9.79298C28.9785 10.9046 29.6039 12.4116 29.6059 13.9836C29.6059 20.8943 19.5822 27.1514 17.2309 28.5243C15.8349 27.7109 11.7357 25.1727 8.63546 21.7941C8.54388 21.6942 8.43352 21.6133 8.31069 21.5561C8.18786 21.4989 8.05496 21.4664 7.91958 21.4605C7.78419 21.4547 7.64898 21.4755 7.52166 21.5219C7.39434 21.5683 7.2774 21.6393 7.17753 21.7309C7.07765 21.8225 6.99679 21.9328 6.93956 22.0557C6.88234 22.1785 6.84986 22.3114 6.844 22.4468C6.83813 22.5822 6.85899 22.7174 6.90538 22.8447C6.95177 22.972 7.02278 23.089 7.11436 23.1888C11.1324 27.5716 16.5155 30.4952 16.7424 30.6177C16.8925 30.6985 17.0604 30.7408 17.2309 30.7408C17.4015 30.7408 17.5693 30.6985 17.7195 30.6177C18.2892 30.3109 31.6684 23.0071 31.6684 13.9836C31.666 11.8647 30.8232 9.83326 29.3249 8.33495C27.8266 6.83664 25.7952 5.99384 23.6762 5.99146Z" fill="white"/>
</svg>
