<svg width="34" height="34" viewBox="0 0 34 34" fill="none" xmlns="http://www.w3.org/2000/svg">
<rect x="0.897583" y="0.5" width="33" height="33" rx="16.5" fill="#FFDA6C"/>
<path d="M9.26515 23.5C8.67848 23.5 8.38515 23.2067 8.38515 22.62V13.18C8.38515 12.5933 8.67848 12.3 9.26515 12.3H13.0891C14.0065 12.3 14.7638 12.5453 15.3611 13.036C15.9585 13.516 16.2571 14.2147 16.2571 15.132C16.2571 15.7827 16.1078 16.3267 15.8091 16.764C15.5211 17.1907 15.1531 17.4787 14.7051 17.628C15.2811 17.7347 15.7611 18.0493 16.1451 18.572C16.5398 19.084 16.7371 19.7187 16.7371 20.476C16.7371 21.5107 16.4278 22.2733 15.8091 22.764C15.1905 23.2547 14.3425 23.5 13.2651 23.5H9.26515ZM10.2251 21.788H13.0091C13.5958 21.788 14.0278 21.6653 14.3051 21.42C14.5931 21.164 14.7371 20.764 14.7371 20.22C14.7371 19.6973 14.5718 19.308 14.2411 19.052C13.9105 18.7853 13.4998 18.652 13.0091 18.652H10.2251V21.788ZM10.2251 16.924H12.7691C13.2598 16.924 13.6278 16.7907 13.8731 16.524C14.1185 16.2573 14.2411 15.8893 14.2411 15.42C14.2411 14.9507 14.1078 14.5987 13.8411 14.364C13.5851 14.1293 13.2171 14.012 12.7371 14.012H10.2251V16.924ZM19.5003 23.5C18.8923 23.5 18.5883 23.1853 18.5883 22.556V13.244C18.5883 12.6147 18.9029 12.3 19.5323 12.3H23.7083C24.7536 12.3 25.5803 12.5453 26.1883 13.036C26.8069 13.5267 27.1163 14.3533 27.1163 15.516C27.1163 16.6787 26.8069 17.5107 26.1883 18.012C25.5803 18.5133 24.7536 18.764 23.7083 18.764H20.4283V22.556C20.4283 23.1853 20.1189 23.5 19.5003 23.5ZM20.4283 17.036H23.4523C23.9963 17.036 24.4176 16.9187 24.7163 16.684C25.0149 16.4493 25.1643 16.06 25.1643 15.516C25.1643 14.9827 25.0149 14.5987 24.7163 14.364C24.4176 14.1293 23.9963 14.012 23.4523 14.012H20.4283V17.036Z" fill="#FB8C04"/>
</svg>
