<svg width="225" height="249" viewBox="0 0 225 249" fill="none" xmlns="http://www.w3.org/2000/svg">
<rect width="224.1" height="249" rx="5" fill="#FFF6D1"/>
<g clip-path="url(#clip0_757_3215)">
<path d="M89.9425 162.384L85.351 200.181L109.614 203.474L123.158 156.094L89.9425 162.384Z" fill="white"/>
<path d="M122.496 159.143L115.851 160.402L102.903 205.701L108.955 206.521L122.496 159.143Z" fill="#F4F1D7"/>
<path d="M128.004 182.552L137.53 196.338L156.328 181.05L141.79 169.52L128.004 182.552Z" fill="white"/>
<path d="M157.772 182.176L143.237 170.649L140.545 173.195L154.858 184.549L157.772 182.176Z" fill="#F4F1D7"/>
<path d="M106.137 197.94L87.1546 194.207C84.0702 193.601 81.0781 195.609 80.4716 198.694L80.3602 199.26C79.7537 202.344 81.7624 205.336 84.8468 205.943L103.829 209.676C106.914 210.282 109.906 208.274 110.513 205.189L110.624 204.623C111.23 201.539 109.222 198.547 106.137 197.94Z" fill="#FB8C04"/>
<path d="M107.66 198.487C108.161 199.548 108.342 200.767 108.1 202.005L107.986 202.575C107.382 205.659 104.389 207.668 101.305 207.063L82.3243 203.33C81.7883 203.225 81.2891 203.045 80.8247 202.808C81.5701 204.388 83.023 205.609 84.8726 205.97L103.854 209.703C106.937 210.308 109.93 208.299 110.535 205.215L110.648 204.645C111.148 202.097 109.862 199.615 107.66 198.487Z" fill="#BB7928"/>
<path d="M151.89 181.553L137.94 194.958C135.674 197.136 135.602 200.739 137.78 203.005L138.18 203.421C140.358 205.688 143.961 205.76 146.228 203.581L160.177 190.176C162.444 187.998 162.515 184.395 160.337 182.129L159.938 181.713C157.759 179.446 154.156 179.374 151.89 181.553Z" fill="#FB8C04"/>
<path d="M160.689 182.266L160.288 181.848C159.429 180.956 158.349 180.408 157.215 180.199C157.645 180.457 158.054 180.768 158.418 181.144L158.819 181.562C160.996 183.829 160.927 187.43 158.66 189.61L144.711 203.015C143.34 204.333 141.474 204.824 139.735 204.505C141.883 205.781 144.694 205.532 146.581 203.719L160.53 190.314C162.797 188.137 162.866 184.532 160.689 182.266Z" fill="#BB7928"/>
<path d="M168.374 141.372C173.083 137.104 176.058 130.864 176.058 123.908C176.058 115.626 171.848 108.359 165.509 104.234C168.402 100.326 170.121 95.4489 170.121 90.1582C170.121 80.0636 163.864 71.4707 155.12 68.2422C155.1 55.402 144.964 45.0005 132.463 45.0005C131.506 45.0005 130.561 45.07 129.636 45.1887C125.556 39.0387 118.69 35 110.903 35C102.167 35 94.5933 40.0821 90.8125 47.5252C78.7783 48.0776 69.187 58.2785 69.187 70.7791C69.187 77.8253 72.2354 84.1349 77.0475 88.4028C73.4794 101.133 71.1388 113.109 70.0054 123.981C67.0102 123.175 65.1238 121.845 61.0974 120.663C59.3379 120.147 56.6782 119.513 53.2411 119.276C52.3163 123.744 51.3916 128.212 50.4668 132.677C55.3852 139.445 59.9517 141.38 63.1761 141.92C65.1238 142.247 66.6583 142.076 69.2361 141.691C69.7271 160.669 74.9688 174.385 84.7115 179.995C88.4433 182.143 94.0164 183.784 102.523 182.495C104.111 184.001 107.241 186.546 111.898 187.806C119.836 189.958 126.42 186.82 128.147 185.932C132.013 186.149 139.002 185.989 146.584 182.495C158.954 176.791 164.462 166.111 166.233 162.064C168.492 158.443 169.806 154.142 169.806 149.523C169.806 146.65 169.298 143.905 168.374 141.364V141.372Z" fill="#FFAE00"/>
<path d="M125.204 44.0563C126.133 43.9377 127.074 43.8681 128.032 43.8681C128.31 43.8681 128.588 43.8804 128.863 43.8886C125.274 39.1952 119.975 35.9504 113.927 35.1606C118.551 36.8178 122.491 39.9686 125.204 44.0522V44.0563Z" fill="#F49C10"/>
<path d="M176.197 123.88C176.197 115.598 171.986 108.331 165.648 104.206C168.541 100.298 170.259 95.421 170.259 90.1302C170.259 80.0356 164.003 71.4427 155.259 68.2143C155.238 56.3847 146.633 46.6338 135.507 45.1689C144.333 48.3401 150.672 56.9576 150.688 67.1054C159.432 70.3297 165.689 78.9226 165.689 89.0213C165.689 94.3121 163.97 99.1855 161.077 103.097C167.416 107.226 171.626 114.489 171.626 122.771C171.626 129.731 168.651 135.971 163.942 140.235C164.866 142.776 165.374 145.522 165.374 148.394C165.374 153.014 164.06 157.314 161.802 160.936C160.026 164.978 154.522 175.662 142.153 181.366C134.57 184.861 127.581 185.02 123.715 184.803C122.201 185.585 116.955 188.089 110.338 187.246C110.879 187.443 111.443 187.623 112.032 187.782C119.971 189.935 126.554 186.796 128.281 185.908C132.148 186.125 139.137 185.965 146.719 182.471C159.089 176.767 164.596 166.087 166.368 162.04C168.627 158.419 169.94 154.119 169.94 149.499C169.94 146.626 169.433 143.881 168.508 141.34C173.218 137.072 176.193 130.832 176.193 123.876L176.197 123.88Z" fill="#F49C10"/>
<path d="M73.6555 77.0113C72.4238 76.9008 71.6259 80.5916 70.8812 83.4805C69.805 87.6583 70.5293 89.786 69.0317 92.4907C68.2706 93.8656 64.5429 95.8133 63.4872 97.1104C62.4315 98.4075 61.0608 104.979 64.6411 111.898C65.1321 112.844 69.2035 120.094 77.8128 121.833C88.8199 124.059 96.7663 115.143 97.2082 114.628C105.605 104.881 101.288 90.7722 97.2082 83.9674C96.5494 82.8708 91.3282 74.372 86.3607 75.1576C83.5087 75.6078 82.367 78.6153 78.9667 78.6234C76.3684 78.6275 74.883 77.1176 73.6514 77.0072L73.6555 77.0113Z" fill="white"/>
<path d="M97.1882 84.0082C97.1023 83.8609 96.9304 83.5826 96.6931 83.2144C100.621 90.2687 101.965 102.345 95.3019 112.667C94.86 113.183 88.143 121.632 77.1359 119.406C70.4703 118.06 66.2456 114.308 64.5762 111.837C64.5925 111.87 64.6089 111.902 64.6253 111.935C65.1163 112.88 69.1877 120.131 77.7969 121.87C88.804 124.096 96.7504 115.18 97.1923 114.664C105.589 104.918 101.272 90.8088 97.1923 84.0041L97.1882 84.0082Z" fill="#F4F1D7"/>
<path d="M99.5368 57.3708C103.6 59.8627 106.084 62.5142 107.622 64.5356C109.267 66.692 110.004 68.3492 111.78 68.6929C114.055 69.1349 116.952 67.3099 117.786 64.9939C119.165 61.1762 115.119 55.5499 110.053 54.2282C104.541 52.7879 99.9255 56.9984 99.5327 57.3708H99.5368Z" fill="white"/>
<path d="M73.2588 125.295C73.2261 127.075 71.6794 128.859 70.4886 128.663C69.3388 128.471 68.7087 126.47 68.8069 125.001C68.8887 123.761 69.5516 121.977 70.6523 121.842C71.8512 121.694 73.2956 123.536 73.2588 125.295Z" fill="#007AFF"/>
<path d="M71.4133 123.605C72.0885 123.224 73.2669 122.672 74.8382 122.496C76.9783 122.255 78.8523 122.639 79.417 123.163C79.9817 123.687 80.1453 124.902 79.8753 126.51C79.5889 128.221 78.7459 129.219 78.2181 129.681C77.6902 130.144 75.8489 130.07 73.893 129.154C72.0476 128.286 71.1801 126.879 70.9019 126.379L71.4092 123.605H71.4133Z" fill="#559EF5"/>
<path d="M71.2539 128.159C71.1066 128.7 70.9716 129.407 70.9552 130.238C70.9347 131.588 70.7956 132.71 71.4299 133.147C71.5853 133.254 71.7613 133.287 72.1091 133.352C72.4733 133.422 73.2344 133.565 73.6722 133.143C73.7254 133.09 73.84 132.967 73.9218 132.73C74.1387 132.096 73.5535 130.999 73.2098 129.997C72.7965 128.798 72.3055 127.783 71.8431 126.969C71.6467 127.366 71.4462 127.763 71.2498 128.155L71.2539 128.159Z" fill="#559EF5"/>
<path d="M117.701 61.299C117.836 62.1788 117.634 62.74 117.352 63.5216C116.517 65.8375 114.051 67.2239 111.776 66.7861C109.996 66.4424 109.668 65.3973 108.023 63.2409C106.607 61.3832 103.702 59.114 100.2 56.8062C99.8396 57.0926 99.6105 57.3013 99.5327 57.3749C103.596 59.8669 106.08 62.5184 107.618 64.5398C109.263 66.6962 110 68.3534 111.776 68.6971C114.051 69.139 116.948 67.314 117.782 64.998C118.187 63.8728 118.122 62.5879 117.696 61.3031L117.701 61.299Z" fill="#F4F1D7"/>
<path d="M78.6887 97.5148C80.0288 97.5148 81.1151 95.7982 81.1151 93.6807C81.1151 91.5633 80.0288 89.8467 78.6887 89.8467C77.3486 89.8467 76.2622 91.5633 76.2622 93.6807C76.2622 95.7982 77.3486 97.5148 78.6887 97.5148Z" fill="#353535"/>
<path d="M66.867 96.7462C65.9668 96.0547 64.2768 96.4557 63.5362 97.5441C62.9879 98.3502 62.8447 99.6964 63.6058 100.392C64.3178 101.043 65.4103 100.736 65.619 100.67C66.7729 100.31 67.6772 99.0663 67.493 97.8919C67.4685 97.7446 67.3744 97.1349 66.867 96.7462Z" fill="#353535"/>
<path d="M54.984 125.728C55.8674 120.505 53.2689 115.71 49.1801 115.018C45.0913 114.327 41.0606 118 40.1772 123.223C39.2938 128.446 41.8922 133.241 45.981 133.932C50.0698 134.624 54.1006 130.951 54.984 125.728Z" fill="white"/>
<path d="M53.3514 117.651C54.3662 119.575 54.7754 122.038 54.3416 124.608C53.4578 129.829 49.4273 133.503 45.3396 132.812C43.7192 132.538 42.3361 131.621 41.3091 130.287C42.3566 132.276 44.0465 133.687 46.1252 134.039C50.213 134.731 54.2475 131.06 55.1273 125.835C55.6592 122.68 54.9227 119.685 53.3555 117.651H53.3514Z" fill="#F4F1D7"/>
<path d="M118.848 122.303C128.69 117.934 138.472 117.525 142.93 122.276C145.895 125.435 146.216 130.579 146.671 137.86C146.985 142.873 146.64 147.025 146.283 149.83C140.918 149.87 135.553 149.906 130.192 149.945C130.192 149.945 131.343 140.988 128.745 138.37C126.146 135.751 123.464 138.972 120.824 139.269" stroke="#F49C10" stroke-width="1.32366" stroke-linecap="round" stroke-linejoin="round"/>
<path d="M148.939 153.601C148.879 149.115 144.169 145.541 138.418 145.618C132.667 145.695 128.054 149.393 128.114 153.879C128.174 158.364 132.884 161.938 138.635 161.861C144.386 161.784 148.999 158.086 148.939 153.601Z" fill="white"/>
<path d="M148.103 150.488C148.309 151.111 148.427 151.764 148.433 152.437C148.494 156.922 143.881 160.622 138.129 160.699C133.826 160.758 130.106 158.771 128.482 155.887C129.653 159.414 133.783 161.985 138.672 161.917C144.42 161.84 149.032 158.14 148.976 153.655C148.96 152.528 148.65 151.457 148.103 150.488Z" fill="#F4F1D7"/>
</g>
<defs>
<clipPath id="clip0_757_3215">
<rect width="143.788" height="178.057" fill="white" transform="translate(40 35)"/>
</clipPath>
</defs>
</svg>
