<svg width="23" height="23" viewBox="0 0 23 23" fill="none" xmlns="http://www.w3.org/2000/svg">
<circle cx="11.2644" cy="11.064" r="11" fill="#FFDA6C"/>
<path d="M7.92655 15.2976C7.38388 15.2976 6.87788 15.2059 6.40855 15.0226C5.93922 14.8319 5.53588 14.5166 5.19855 14.0766C5.07388 13.9006 5.02988 13.7392 5.06655 13.5926C5.11055 13.4386 5.22055 13.3139 5.39655 13.2186C5.56522 13.1159 5.71922 13.0866 5.85855 13.1306C5.99788 13.1672 6.13722 13.2626 6.27655 13.4166C6.47455 13.6292 6.70922 13.7942 6.98055 13.9116C7.25922 14.0289 7.58922 14.0876 7.97055 14.0876C8.48388 14.0876 8.84322 13.9959 9.04855 13.8126C9.26122 13.6219 9.36755 13.3652 9.36755 13.0426C9.36755 12.8372 9.31988 12.6612 9.22455 12.5146C9.13655 12.3679 8.94588 12.2322 8.65255 12.1076C8.36655 11.9756 7.92288 11.8436 7.32155 11.7116C6.61022 11.5429 6.08222 11.2752 5.73755 10.9086C5.40022 10.5419 5.23155 10.0762 5.23155 9.51155C5.23155 9.06422 5.33788 8.67189 5.55055 8.33455C5.77055 7.98989 6.07488 7.72222 6.46355 7.53155C6.85955 7.34089 7.32155 7.24555 7.84955 7.24555C8.39955 7.24555 8.87988 7.34089 9.29055 7.53155C9.70122 7.72222 10.0459 7.96789 10.3245 8.26855C10.4639 8.42255 10.5189 8.57655 10.4895 8.73055C10.4602 8.88455 10.3649 9.02389 10.2035 9.14855C10.0422 9.28055 9.88822 9.33189 9.74155 9.30255C9.59488 9.27322 9.44822 9.18889 9.30155 9.04955C9.11822 8.88089 8.90922 8.74155 8.67455 8.63155C8.43988 8.52155 8.16122 8.46655 7.83855 8.46655C7.45722 8.46655 7.14555 8.55089 6.90355 8.71955C6.66888 8.88089 6.55155 9.12655 6.55155 9.45655C6.55155 9.60322 6.58455 9.74622 6.65055 9.88555C6.72388 10.0176 6.87788 10.1459 7.11255 10.2706C7.35455 10.3952 7.72488 10.5162 8.22355 10.6336C9.10355 10.8316 9.73788 11.1286 10.1265 11.5246C10.5152 11.9206 10.7095 12.4192 10.7095 13.0206C10.7095 13.7539 10.4529 14.3186 9.93955 14.7146C9.43355 15.1032 8.76255 15.2976 7.92655 15.2976ZM12.6348 15.1436C12.2168 15.1436 12.0078 14.9272 12.0078 14.4946V8.09255C12.0078 7.65989 12.2241 7.44355 12.6568 7.44355H15.5278C16.2465 7.44355 16.8148 7.61222 17.2328 7.94955C17.6581 8.28689 17.8708 8.85522 17.8708 9.65455C17.8708 10.4539 17.6581 11.0259 17.2328 11.3706C16.8148 11.7152 16.2465 11.8876 15.5278 11.8876H13.2728V14.4946C13.2728 14.9272 13.0601 15.1436 12.6348 15.1436ZM13.2728 10.6996H15.3518C15.7258 10.6996 16.0155 10.6189 16.2208 10.4576C16.4261 10.2962 16.5288 10.0286 16.5288 9.65455C16.5288 9.28789 16.4261 9.02389 16.2208 8.86255C16.0155 8.70122 15.7258 8.62055 15.3518 8.62055H13.2728V10.6996Z" fill="#FB8C04"/>
</svg>
