<svg width="224" height="249" viewBox="0 0 224 249" fill="none" xmlns="http://www.w3.org/2000/svg">
<rect x="0.5" y="0.5" width="223" height="247.889" rx="4.5" fill="#EDF5FF" stroke="#347CD1"/>
<path d="M92.6649 161.967L74.7915 195.566L96.2355 207.362L125.905 168.045L92.6649 161.967Z" fill="white"/>
<path d="M124.191 170.65L117.541 169.435L89.1763 207.026L94.526 209.967L124.191 170.65Z" fill="#D7E6F4"/>
<path d="M151.631 169.489L163.133 181.664L179.386 163.709L163.274 154.522L151.631 169.489Z" fill="white"/>
<path d="M180.984 164.602L164.876 155.418L162.602 158.341L178.466 167.389L180.984 164.602Z" fill="#D7E6F4"/>
<path d="M94.9829 200.951L78.6213 190.643C75.9628 188.969 72.4499 189.766 70.7751 192.424L70.4677 192.912C68.7929 195.571 69.5904 199.084 72.2489 200.759L88.6105 211.066C91.269 212.741 94.7818 211.943 96.4566 209.285L96.764 208.797C98.4388 206.138 97.6414 202.626 94.9829 200.951Z" fill="#699FED"/>
<path d="M96.2075 202.008C96.2934 203.178 96.0235 204.38 95.3527 205.448L95.0419 205.938C93.3691 208.597 89.8557 209.394 87.1972 207.722L70.8371 197.415C70.3749 197.124 69.9741 196.777 69.6265 196.388C69.7533 198.131 70.6694 199.791 72.2645 200.793L88.6246 211.1C91.2832 212.773 94.7965 211.975 96.4693 209.317L96.7801 208.826C98.1626 206.63 97.8558 203.852 96.2075 202.008Z" fill="#4089D3"/>
<path d="M175.077 164.878L163.329 180.238C161.42 182.734 161.895 186.304 164.391 188.213L164.849 188.564C167.345 190.473 170.915 189.997 172.824 187.501L184.573 172.142C186.482 169.646 186.006 166.075 183.51 164.166L183.052 163.816C180.557 161.907 176.986 162.383 175.077 164.878Z" fill="#699FED"/>
<path d="M183.879 164.25L183.42 163.898C182.435 163.147 181.285 162.769 180.134 162.735C180.597 162.925 181.049 163.17 181.465 163.486L181.925 163.838C184.419 165.747 184.897 169.315 182.988 171.814L171.24 187.173C170.085 188.683 168.316 189.451 166.55 189.4C168.866 190.335 171.605 189.662 173.194 187.585L184.942 172.226C186.852 169.731 186.374 166.159 183.879 164.25Z" fill="#4089D3"/>
<path d="M164.738 140.324C169.446 136.058 172.419 129.821 172.419 122.868C172.419 114.59 168.211 107.326 161.875 103.203C164.767 99.2973 166.485 94.422 166.485 89.1335C166.485 79.0435 160.231 70.4544 151.491 67.2274C151.47 54.3929 141.339 43.996 128.844 43.996C127.887 43.996 126.942 44.0656 126.018 44.1842C121.94 38.0369 115.077 34 107.294 34C98.5618 34 90.9911 39.0798 87.2119 46.5196C75.1832 47.0717 65.5961 57.2682 65.5961 69.7632C65.5961 76.8062 68.6432 83.113 73.4531 87.3789C69.8866 100.103 67.5471 112.075 66.4142 122.942C63.4203 122.136 61.5348 120.807 57.5102 119.625C55.7515 119.109 53.0929 118.475 49.6573 118.238C48.733 122.704 47.8086 127.171 46.8843 131.633C51.8005 138.398 56.365 140.332 59.5879 140.872C61.5347 141.2 63.0685 141.028 65.6452 140.643C66.136 159.613 71.3753 173.323 81.1137 178.93C84.8438 181.077 90.4144 182.717 98.9176 181.429C100.505 182.934 103.633 185.478 108.288 186.738C116.222 188.889 122.803 185.752 124.529 184.865C128.394 185.081 135.38 184.922 142.959 181.429C155.323 175.728 160.828 165.053 162.599 161.008C164.857 157.388 166.17 153.089 166.17 148.472C166.17 145.6 165.663 142.856 164.738 140.316V140.324Z" fill="#6CB0FF"/>
<path d="M121.589 43.0514C122.517 42.9328 123.458 42.8632 124.415 42.8632C124.693 42.8632 124.971 42.8755 125.245 42.8837C121.658 38.1924 116.361 34.949 110.316 34.1597C114.938 35.8161 118.877 38.9654 121.589 43.0473V43.0514Z" fill="#5D9FED"/>
<path d="M172.558 122.84C172.558 114.562 168.35 107.298 162.014 103.175C164.906 99.269 166.624 94.3937 166.624 89.1053C166.624 79.0152 160.37 70.4261 151.63 67.1991C151.609 55.3748 143.008 45.6283 131.887 44.1641C140.709 47.3338 147.045 55.9474 147.061 66.0907C155.802 69.3136 162.055 77.9027 162.055 87.9969C162.055 93.2853 160.337 98.1565 157.446 102.067C163.781 106.193 167.99 113.453 167.99 121.731C167.99 128.689 165.016 134.926 160.309 139.188C161.233 141.728 161.74 144.472 161.74 147.343C161.74 151.961 160.427 156.259 158.17 159.879C156.395 163.92 150.894 174.599 138.529 180.301C130.951 183.793 123.965 183.953 120.1 183.736C118.586 184.517 113.343 187.02 106.729 186.178C107.269 186.374 107.834 186.554 108.423 186.714C116.357 188.865 122.938 185.728 124.664 184.84C128.529 185.057 135.515 184.898 143.094 181.405C155.458 175.703 160.963 165.028 162.734 160.983C164.992 157.364 166.305 153.065 166.305 148.447C166.305 145.576 165.798 142.832 164.873 140.292C169.581 136.026 172.554 129.789 172.554 122.836L172.558 122.84Z" fill="#5D9FED"/>
<path d="M70.062 75.9923C68.8309 75.8819 68.0334 79.5711 67.289 82.4587C66.2133 86.6346 66.9373 88.7614 65.4403 91.4649C64.6796 92.8392 60.9536 94.786 59.8983 96.0825C58.8431 97.3791 57.4729 103.948 61.0517 110.864C61.5425 111.809 65.6121 119.056 74.2175 120.794C85.2197 123.019 93.1625 114.107 93.6042 113.592C101.997 103.85 97.682 89.7471 93.6042 82.9454C92.9457 81.8493 87.7269 73.3543 82.7616 74.1396C79.9108 74.5895 78.7697 77.5956 75.3709 77.6038C72.7737 77.6079 71.289 76.0987 70.0579 75.9883L70.062 75.9923Z" fill="white"/>
<path d="M93.5838 82.9858C93.4979 82.8386 93.3262 82.5605 93.0889 82.1924C97.0154 89.2436 98.3588 101.314 91.6983 111.632C91.2566 112.147 84.5427 120.593 73.5405 118.368C66.8778 117.022 62.6551 113.272 60.9863 110.802C61.0027 110.835 61.019 110.868 61.0354 110.9C61.5262 111.845 65.5958 119.093 74.2012 120.831C85.2034 123.056 93.1462 114.144 93.5879 113.628C101.981 103.886 97.6657 89.7835 93.5879 82.9818L93.5838 82.9858Z" fill="#D7E6F4"/>
<path d="M95.9313 56.36C99.9927 58.8508 102.475 61.5011 104.013 63.5216C105.657 65.6771 106.394 67.3335 108.169 67.6771C110.443 68.1188 113.338 66.2946 114.173 63.9797C115.551 60.1637 111.506 54.5399 106.443 53.2188C100.933 51.7791 96.3199 55.9878 95.9272 56.36H95.9313Z" fill="white"/>
<path d="M69.665 124.254C69.6323 126.033 68.0863 127.817 66.8961 127.62C65.7468 127.428 65.1169 125.428 65.2151 123.96C65.2969 122.72 65.9595 120.937 67.0597 120.802C68.258 120.655 69.7018 122.496 69.665 124.254Z" fill="#FF4545"/>
<path d="M67.8208 122.565C68.4957 122.185 69.6736 121.632 71.2442 121.457C73.3833 121.215 75.2565 121.6 75.8209 122.123C76.3853 122.647 76.5489 123.861 76.279 125.469C75.9927 127.179 75.1502 128.176 74.6225 128.639C74.0949 129.101 72.2544 129.027 70.2994 128.111C68.4548 127.244 67.5877 125.837 67.3096 125.338L67.8167 122.565H67.8208Z" fill="#FF6E6E"/>
<path d="M67.6615 127.117C67.5142 127.657 67.3793 128.365 67.3629 129.195C67.3425 130.545 67.2034 131.666 67.8373 132.103C67.9928 132.21 68.1686 132.242 68.5163 132.308C68.8803 132.377 69.641 132.52 70.0787 132.099C70.1318 132.046 70.2464 131.923 70.3282 131.686C70.5449 131.052 69.9601 129.956 69.6165 128.954C69.2034 127.755 68.7126 126.741 68.2504 125.927C68.0541 126.324 67.8537 126.721 67.6574 127.113L67.6615 127.117Z" fill="#FF6E6E"/>
<path d="M114.087 60.2872C114.222 61.1666 114.021 61.7276 113.739 62.5088C112.904 64.8238 110.439 66.2095 108.165 65.7719C106.385 65.4283 106.058 64.3837 104.413 62.2283C102.998 60.3714 100.095 58.1032 96.5939 55.7964C96.234 56.0827 96.005 56.2913 95.9272 56.3649C99.9886 58.8557 102.471 61.5061 104.009 63.5265C105.653 65.682 106.39 67.3384 108.165 67.682C110.439 68.1237 113.334 66.2996 114.169 63.9846C114.574 62.8599 114.508 61.5756 114.083 60.2913L114.087 60.2872Z" fill="#D7E6F4"/>
<path d="M75.0934 96.4875C76.4329 96.4875 77.5187 94.7717 77.5187 92.6551C77.5187 90.5386 76.4329 88.8228 75.0934 88.8228C73.7539 88.8228 72.668 90.5386 72.668 92.6551C72.668 94.7717 73.7539 96.4875 75.0934 96.4875Z" fill="#353535"/>
<path d="M63.2774 95.7182C62.3776 95.027 60.6884 95.4278 59.9481 96.5158C59.4001 97.3215 59.2569 98.6671 60.0177 99.3624C60.7293 100.013 61.8214 99.706 62.0299 99.6406C63.1833 99.2806 64.0872 98.0373 63.9032 96.8634C63.8786 96.7162 63.7846 96.1068 63.2774 95.7182Z" fill="#353535"/>
<path d="M51.399 124.688C52.282 119.467 49.6847 114.675 45.5977 113.983C41.5108 113.292 37.4818 116.964 36.5988 122.184C35.7158 127.405 38.3131 132.198 42.4001 132.889C46.487 133.58 50.516 129.908 51.399 124.688Z" fill="white"/>
<path d="M49.7674 116.614C50.7817 118.537 51.1907 120.999 50.7572 123.567C49.8738 128.786 45.8451 132.459 41.7591 131.768C40.1395 131.494 38.7571 130.578 37.7305 129.244C38.7775 131.232 40.4667 132.643 42.5444 132.995C46.6304 133.686 50.6631 130.017 51.5425 124.794C52.0742 121.641 51.338 118.647 49.7715 116.614H49.7674Z" fill="#D7E6F4"/>
<path d="M112.942 117.197C121.089 108.464 130.895 103.798 137.508 106.712C141.905 108.648 144.467 113.759 148.094 120.992C150.591 125.972 152.042 130.359 152.896 133.377C147.438 135.748 141.977 138.114 136.523 140.482C136.523 140.482 133.808 130.841 130.019 129.297C126.23 127.753 124.892 132.204 122.325 133.654" stroke="#5D9FED" stroke-width="1.46878" stroke-linecap="round" stroke-linejoin="round"/>
<path d="M157.245 136.072C155.236 131.52 148.876 129.918 143.04 132.494C137.204 135.07 134.102 140.848 136.111 145.4C138.12 149.952 144.479 151.554 150.315 148.978C156.151 146.402 159.254 140.624 157.245 136.072Z" fill="white"/>
<path d="M155.039 133.258C155.519 133.805 155.924 134.419 156.222 135.104C158.232 139.654 155.131 145.434 149.294 148.011C144.928 149.939 140.268 149.527 137.358 147.289C140.085 150.38 145.416 151.21 150.376 149.018C156.21 146.444 159.31 140.664 157.305 136.111C156.799 134.968 156.018 134.009 155.039 133.258Z" fill="#D7E6F4"/>
</svg>
