<svg width="34" height="34" viewBox="0 0 34 34" fill="none" xmlns="http://www.w3.org/2000/svg">
<path d="M32.6997 11.1477C32.7002 10.5824 32.5679 10.0248 32.3134 9.52002C32.059 9.0152 31.6896 8.57721 31.2349 8.24132C30.7801 7.90544 30.2529 7.68105 29.6956 7.58625C29.1383 7.49145 28.5665 7.52888 28.0263 7.69552C27.4861 7.86216 26.9926 8.15336 26.5856 8.54565C26.1786 8.93795 25.8694 9.42036 25.6829 9.95404C25.4965 10.4877 25.438 11.0577 25.5121 11.6181C25.5863 12.1786 25.7911 12.7137 26.11 13.1805L22.6566 17.4344L19.5512 10.2969C20.1176 9.82021 20.5237 9.18092 20.7145 8.46568C20.9053 7.75043 20.8715 6.99382 20.6178 6.29839C20.3641 5.60297 19.9028 5.00237 19.2962 4.578C18.6897 4.15364 17.9673 3.92603 17.2271 3.92603C16.4868 3.92603 15.7644 4.15364 15.1579 4.578C14.5514 5.00237 14.09 5.60297 13.8363 6.29839C13.5826 6.99382 13.5488 7.75043 13.7396 8.46568C13.9304 9.18092 14.3365 9.82021 14.9029 10.2969L11.8053 17.4306L8.35186 13.1766C8.79548 12.5266 9.0145 11.7494 8.97557 10.9634C8.93663 10.1774 8.64187 9.42569 8.13618 8.8227C7.63049 8.21972 6.94159 7.79852 6.17438 7.62327C5.40717 7.44802 4.60371 7.52832 3.88637 7.85194C3.16902 8.17556 2.57709 8.72475 2.20074 9.41589C1.82438 10.107 1.68423 10.9022 1.80162 11.6804C1.919 12.4586 2.2875 13.177 2.85099 13.7264C3.41447 14.2758 4.14206 14.6259 4.92296 14.7235L6.78952 25.9242C6.86976 26.4057 7.11821 26.8432 7.49068 27.1588C7.86315 27.4744 8.33548 27.6476 8.82366 27.6477H25.6382C26.1264 27.6476 26.5987 27.4744 26.9712 27.1588C27.3436 26.8432 27.5921 26.4057 27.6723 25.9242L29.5376 14.7287C30.4105 14.6197 31.2136 14.1956 31.7959 13.5362C32.3781 12.8767 32.6995 12.0274 32.6997 11.1477ZM17.2309 5.99141C17.5369 5.99141 17.8359 6.08214 18.0903 6.25211C18.3447 6.42208 18.543 6.66367 18.6601 6.94632C18.7771 7.22898 18.8078 7.54 18.7481 7.84007C18.6884 8.14013 18.5411 8.41576 18.3247 8.63209C18.1084 8.84843 17.8328 8.99575 17.5327 9.05544C17.2326 9.11513 16.9216 9.08449 16.639 8.96741C16.3563 8.85034 16.1147 8.65207 15.9447 8.39769C15.7748 8.1433 15.6841 7.84423 15.6841 7.53829C15.6841 7.12803 15.847 6.73458 16.1371 6.44448C16.4272 6.15439 16.8207 5.99141 17.2309 5.99141ZM3.82467 11.1477C3.82467 10.8417 3.9154 10.5426 4.08537 10.2883C4.25534 10.0339 4.49693 9.83562 4.77959 9.71854C5.06224 9.60146 5.37327 9.57082 5.67333 9.63051C5.97339 9.6902 6.24902 9.83752 6.46536 10.0539C6.68169 10.2702 6.82902 10.5458 6.8887 10.8459C6.94839 11.1459 6.91776 11.457 6.80068 11.7396C6.6836 12.0223 6.48533 12.2639 6.23095 12.4338C5.97656 12.6038 5.67749 12.6945 5.37155 12.6945C4.96129 12.6945 4.56784 12.5316 4.27774 12.2415C3.98765 11.9514 3.82467 11.5579 3.82467 11.1477ZM25.6382 25.5852H8.82366L7.02928 14.8241L11.2742 20.0422C11.3703 20.1623 11.4921 20.2593 11.6306 20.3262C11.7691 20.3932 11.9208 20.4282 12.0747 20.4289C12.1212 20.4291 12.1678 20.4261 12.2139 20.4199C12.3896 20.396 12.5561 20.3272 12.6975 20.2202C12.8388 20.1132 12.9502 19.9715 13.0208 19.8089L16.7978 11.1206C17.0854 11.1567 17.3764 11.1567 17.6641 11.1206L21.441 19.8089C21.5116 19.9715 21.623 20.1132 21.7644 20.2202C21.9057 20.3272 22.0723 20.396 22.248 20.4199C22.2941 20.4261 22.3406 20.4291 22.3872 20.4289C22.541 20.4282 22.6927 20.3932 22.8312 20.3262C22.9698 20.2593 23.0915 20.1623 23.1877 20.0422L27.4326 14.8189L25.6382 25.5852ZM29.0903 12.6945C28.7844 12.6945 28.4853 12.6038 28.2309 12.4338C27.9765 12.2639 27.7783 12.0223 27.6612 11.7396C27.5441 11.457 27.5135 11.1459 27.5732 10.8459C27.6328 10.5458 27.7802 10.2702 27.9965 10.0539C28.2128 9.83752 28.4885 9.6902 28.7885 9.63051C29.0886 9.57082 29.3996 9.60146 29.6823 9.71854C29.9649 9.83562 30.2065 10.0339 30.3765 10.2883C30.5465 10.5426 30.6372 10.8417 30.6372 11.1477C30.6372 11.5579 30.4742 11.9514 30.1841 12.2415C29.894 12.5316 29.5006 12.6945 29.0903 12.6945Z" fill="white"/>
</svg>
