<svg width="34" height="34" viewBox="0 0 34 34" fill="none" xmlns="http://www.w3.org/2000/svg">
<path d="M29.7378 9.05846L29.1371 8.71171C29.2076 8.3386 29.2076 7.95559 29.1371 7.58249L29.7378 7.23573C29.9747 7.09898 30.1476 6.87371 30.2185 6.60948C30.2893 6.34525 30.2523 6.06371 30.1155 5.82678C29.9788 5.58986 29.7535 5.41696 29.4893 5.34613C29.225 5.2753 28.9435 5.31234 28.7066 5.44909L28.1046 5.79713C27.8165 5.54997 27.4852 5.35812 27.1275 5.23124V4.53772C27.1275 4.26422 27.0188 4.00191 26.8254 3.80852C26.632 3.61512 26.3697 3.50647 26.0962 3.50647C25.8227 3.50647 25.5604 3.61512 25.367 3.80852C25.1736 4.00191 25.065 4.26422 25.065 4.53772V5.23124C24.7072 5.35812 24.376 5.54997 24.0879 5.79713L23.4859 5.44909C23.3686 5.38137 23.2391 5.33743 23.1048 5.31977C22.9705 5.3021 22.834 5.31106 22.7032 5.34613C22.5723 5.38121 22.4497 5.4417 22.3422 5.52417C22.2348 5.60664 22.1446 5.70947 22.0769 5.82678C22.0092 5.9441 21.9653 6.0736 21.9476 6.20789C21.9299 6.34219 21.9389 6.47865 21.974 6.60948C22.009 6.74031 22.0695 6.86296 22.152 6.97041C22.2345 7.07786 22.3373 7.16802 22.4546 7.23573L23.0553 7.58249C22.9849 7.95559 22.9849 8.3386 23.0553 8.71171L22.4546 9.05846C22.2579 9.17192 22.1041 9.34713 22.0172 9.55691C21.9302 9.76669 21.915 9.99931 21.9737 10.2187C22.0325 10.438 22.162 10.6318 22.3422 10.77C22.5224 10.9083 22.7432 10.9831 22.9702 10.983C23.1513 10.9836 23.3293 10.936 23.4859 10.8451L24.0879 10.4971C24.376 10.7442 24.7072 10.9361 25.065 11.063V11.7565C25.065 12.03 25.1736 12.2923 25.367 12.4857C25.5604 12.6791 25.8227 12.7877 26.0962 12.7877C26.3697 12.7877 26.632 12.6791 26.8254 12.4857C27.0188 12.2923 27.1275 12.03 27.1275 11.7565V11.063C27.4852 10.9361 27.8165 10.7442 28.1046 10.4971L28.7066 10.8451C28.8632 10.936 29.0411 10.9836 29.2222 10.983C29.4493 10.9831 29.6701 10.9083 29.8502 10.77C30.0304 10.6318 30.16 10.438 30.2187 10.2187C30.2775 9.99931 30.2622 9.76669 30.1753 9.55691C30.0883 9.34713 29.9345 9.17192 29.7378 9.05846ZM25.065 8.1471C25.065 7.94313 25.1255 7.74375 25.2388 7.57416C25.3521 7.40458 25.5131 7.2724 25.7016 7.19435C25.89 7.11629 26.0974 7.09587 26.2974 7.13566C26.4975 7.17545 26.6812 7.27367 26.8254 7.41789C26.9697 7.56212 27.0679 7.74587 27.1077 7.94591C27.1474 8.14595 27.127 8.3533 27.049 8.54174C26.9709 8.73018 26.8387 8.89123 26.6692 9.00455C26.4996 9.11786 26.3002 9.17835 26.0962 9.17835C25.8227 9.17835 25.5604 9.0697 25.367 8.8763C25.1736 8.6829 25.065 8.4206 25.065 8.1471ZM28.8484 14.3488C28.5786 14.3939 28.3379 14.5444 28.179 14.767C28.0202 14.9896 27.9563 15.2663 28.0015 15.536C28.1062 16.1613 28.1588 16.7943 28.1587 17.4283C28.1612 20.2052 27.1406 22.8857 25.2918 24.9578C24.1417 23.2911 22.5245 22.0017 20.6435 21.2517C21.6539 20.4559 22.3912 19.365 22.7528 18.1308C23.1145 16.8965 23.0825 15.5802 22.6614 14.365C22.2403 13.1497 21.4509 12.0959 20.4031 11.35C19.3553 10.6042 18.1011 10.2034 16.815 10.2034C15.5288 10.2034 14.2746 10.6042 13.2268 11.35C12.179 12.0959 11.3897 13.1497 10.9685 14.365C10.5474 15.5802 10.5155 16.8965 10.8771 18.1308C11.2388 19.365 11.9761 20.4559 12.9865 21.2517C11.1055 22.0017 9.48824 23.2911 8.3381 24.9578C6.88754 23.3232 5.94002 21.3044 5.60947 19.1441C5.27892 16.9839 5.57941 14.7741 6.47481 12.7806C7.37021 10.787 8.8224 9.09458 10.6568 7.90669C12.4911 6.71881 14.6296 6.08609 16.815 6.0846C17.449 6.08449 18.082 6.1371 18.7073 6.24186C18.9758 6.28423 19.2502 6.21886 19.4708 6.05996C19.6914 5.90106 19.8403 5.6615 19.8852 5.39338C19.93 5.12525 19.8672 4.85027 19.7103 4.62823C19.5535 4.40619 19.3153 4.25506 19.0476 4.20772C16.2471 3.73659 13.3692 4.16767 10.8296 5.43874C8.29005 6.70981 6.22012 8.75508 4.91871 11.2793C3.6173 13.8034 3.15176 16.6759 3.58929 19.4819C4.02683 22.2879 5.34481 24.8823 7.35293 26.8904C9.36105 28.8985 11.9554 30.2165 14.7614 30.654C17.5674 31.0916 20.4399 30.626 22.9641 29.3246C25.4882 28.0232 27.5335 25.9533 28.8046 23.4137C30.0756 20.8741 30.5067 17.9963 30.0356 15.1957C29.9905 14.926 29.84 14.6852 29.6174 14.5264C29.3947 14.3675 29.1181 14.3037 28.8484 14.3488ZM12.69 16.3971C12.69 15.5813 12.9319 14.7837 13.3852 14.1054C13.8384 13.427 14.4827 12.8983 15.2364 12.5861C15.9902 12.2739 16.8196 12.1922 17.6197 12.3514C18.4199 12.5105 19.1549 12.9034 19.7318 13.4803C20.3087 14.0572 20.7015 14.7922 20.8607 15.5924C21.0199 16.3925 20.9382 17.2219 20.626 17.9757C20.3138 18.7294 19.7851 19.3737 19.1067 19.8269C18.4283 20.2802 17.6308 20.5221 16.815 20.5221C15.721 20.5221 14.6717 20.0875 13.8982 19.3139C13.1246 18.5403 12.69 17.4911 12.69 16.3971ZM9.86435 26.3873C10.6104 25.2206 11.6381 24.2604 12.8528 23.5953C14.0675 22.9302 15.4301 22.5816 16.815 22.5816C18.1998 22.5816 19.5624 22.9302 20.7771 23.5953C21.9918 24.2604 23.0196 25.2206 23.7656 26.3873C21.7783 27.9329 19.3325 28.772 16.815 28.772C14.2974 28.772 11.8517 27.9329 9.86435 26.3873Z" fill="white"/>
</svg>
