<svg width="34" height="34" viewBox="0 0 34 34" fill="none" xmlns="http://www.w3.org/2000/svg">
<path d="M28.5288 10.023H24.0068C24.0571 9.9805 24.1086 9.93925 24.1576 9.89414C24.5491 9.54632 24.8646 9.12146 25.0845 8.64613C25.3043 8.17081 25.4236 7.65524 25.4351 7.13167C25.452 6.55891 25.3517 5.98873 25.1403 5.45613C24.9289 4.92354 24.6109 4.43977 24.2058 4.03453C23.8006 3.62928 23.317 3.31112 22.7844 3.09956C22.2519 2.88801 21.6818 2.78753 21.109 2.80429C20.5852 2.81557 20.0694 2.93485 19.5938 3.15467C19.1183 3.37448 18.6932 3.69009 18.3452 4.08175C17.8638 4.63978 17.4723 5.26955 17.1851 5.94831C16.8979 5.26955 16.5064 4.63978 16.0249 4.08175C15.677 3.69009 15.2519 3.37448 14.7763 3.15467C14.3008 2.93485 13.785 2.81557 13.2612 2.80429C12.6884 2.78753 12.1183 2.88801 11.5857 3.09956C11.0532 3.31112 10.5695 3.62928 10.1644 4.03453C9.75928 4.43977 9.44126 4.92354 9.22986 5.45613C9.01847 5.98873 8.91816 6.55891 8.93509 7.13167C8.94655 7.65524 9.06591 8.17081 9.28572 8.64613C9.50553 9.12146 9.82105 9.54632 10.2125 9.89414C10.2615 9.93667 10.3131 9.97792 10.3634 10.023H5.84134C5.29433 10.023 4.76972 10.2403 4.38293 10.6271C3.99614 11.0139 3.77884 11.5385 3.77884 12.0855V16.2105C3.77884 16.7576 3.99614 17.2822 4.38293 17.669C4.76972 18.0557 5.29433 18.273 5.84134 18.273V26.523C5.84134 27.0701 6.05864 27.5947 6.44543 27.9815C6.83222 28.3682 7.35683 28.5855 7.90384 28.5855H26.4663C27.0133 28.5855 27.538 28.3682 27.9247 27.9815C28.3115 27.5947 28.5288 27.0701 28.5288 26.523V18.273C29.0758 18.273 29.6005 18.0557 29.9872 17.669C30.374 17.2822 30.5913 16.7576 30.5913 16.2105V12.0855C30.5913 11.5385 30.374 11.0139 29.9872 10.6271C29.6005 10.2403 29.0758 10.023 28.5288 10.023ZM19.8921 5.44816C20.0554 5.26784 20.2542 5.12324 20.476 5.02341C20.6979 4.92359 20.9379 4.8707 21.1812 4.86808H21.2443C21.5294 4.86986 21.8113 4.92853 22.0735 5.04065C22.3356 5.15277 22.5727 5.31608 22.7709 5.52101C22.9691 5.72594 23.1244 5.96838 23.2278 6.23411C23.3311 6.49983 23.3803 6.78351 23.3726 7.06851C23.37 7.31175 23.3171 7.55183 23.2173 7.77366C23.1174 7.99549 22.9728 8.19429 22.7925 8.35757C21.5692 9.44039 19.5389 9.82195 18.2808 9.95601C18.4355 8.59089 18.8609 6.60702 19.8921 5.44816ZM11.6305 5.49456C12.0301 5.09507 12.5711 4.86946 13.1361 4.86679H13.1993C13.4426 4.86941 13.6826 4.9223 13.9045 5.02212C14.1263 5.12195 14.3251 5.26656 14.4884 5.44687C15.5699 6.6689 15.9515 8.69531 16.0855 9.94828C14.8325 9.81937 12.8061 9.43265 11.5841 8.35113C11.4038 8.18784 11.2592 7.98905 11.1594 7.76721C11.0595 7.54538 11.0067 7.30531 11.004 7.06206C10.996 6.77233 11.047 6.48399 11.1538 6.21454C11.2606 5.94508 11.421 5.70014 11.6254 5.49456H11.6305ZM5.84134 12.0855H16.1538V16.2105H5.84134V12.0855ZM7.90384 18.273H16.1538V26.523H7.90384V18.273ZM26.4663 26.523H18.2163V18.273H26.4663V26.523ZM28.5288 16.2105H18.2163V12.0855H28.5288V16.2105Z" fill="white"/>
</svg>
