<svg width="56" height="33" viewBox="0 0 56 33" fill="none" xmlns="http://www.w3.org/2000/svg">
<g clip-path="url(#clip0_174_1862)">
<path d="M7.16333 7.10107H42.5696C49.7319 7.10107 55.5465 12.9157 55.5465 20.078V28.6712H7.16333V7.10107Z" fill="#FFA600"/>
<path d="M10.7641 0.139648H26.1558C28.1433 0.139648 29.7566 1.75296 29.7566 3.74044V7.10102H7.16333V3.74044C7.16333 1.75296 8.77664 0.139648 10.7641 0.139648Z" fill="#FF8000"/>
<path d="M35.9548 7.03559C35.9548 6.02085 35.1324 5.19824 34.118 5.19824C33.1036 5.19824 32.2812 6.02085 32.2812 7.03559V12.9622C32.2812 13.977 33.1036 14.7996 34.118 14.7996C35.1324 14.7996 35.9548 13.977 35.9548 12.9622V7.03559Z" fill="white"/>
<path d="M40.6491 7.03559C40.6491 6.02085 39.8268 5.19824 38.8124 5.19824C37.7979 5.19824 36.9756 6.02085 36.9756 7.03559V12.9622C36.9756 13.977 37.7979 14.7996 38.8124 14.7996C39.8268 14.7996 40.6491 13.977 40.6491 12.9622V7.03559Z" fill="white"/>
<path d="M45.3435 7.03559C45.3435 6.02085 44.5211 5.19824 43.5067 5.19824C42.4923 5.19824 41.6699 6.02085 41.6699 7.03559V12.9622C41.6699 13.977 42.4923 14.7996 43.5067 14.7996C44.5211 14.7996 45.3435 13.977 45.3435 12.9622V7.03559Z" fill="white"/>
<mask id="mask0_174_1862" style="mask-type:luminance" maskUnits="userSpaceOnUse" x="0" y="12" width="21" height="21">
<path d="M10.6868 32.8673C16.2848 32.8673 20.8228 28.3292 20.8228 22.7312C20.8228 17.1333 16.2848 12.5952 10.6868 12.5952C5.08883 12.5952 0.550781 17.1333 0.550781 22.7312C0.550781 28.3292 5.08883 32.8673 10.6868 32.8673Z" fill="white"/>
</mask>
<g mask="url(#mask0_174_1862)">
<path d="M7.15649 5.38477H42.5627C49.725 5.38477 55.5396 11.1994 55.5396 18.3617V26.9549H7.15649V5.38477Z" fill="#FF8000"/>
</g>
<path d="M53.8188 31.3472H8.88982C7.93592 31.3472 7.16333 30.5746 7.16333 29.6207V26.692C8.85171 26.028 11.7827 25.021 15.529 24.5394C26.1708 23.1721 31.7487 27.5501 43.9115 27.7764C46.4902 27.8237 50.5252 27.7071 55.5453 26.692C55.6366 26.8976 55.5453 28.0674 55.5453 29.6207C55.5453 30.5746 54.7727 31.3472 53.8188 31.3472Z" fill="white"/>
</g>
<defs>
<clipPath id="clip0_174_1862">
<rect width="55.035" height="32.7282" fill="white" transform="translate(0.550781 0.139648)"/>
</clipPath>
</defs>
</svg>
